<svg width="1024" height="1024" viewBox="0 0 1024 1024" fill="none" xmlns="http://www.w3.org/2000/svg">
<g clip-path="url(#clip0_65_2794)">
<mask id="mask0_65_2794" style="mask-type:alpha" maskUnits="userSpaceOnUse" x="0" y="0" width="1025" height="1025">
<path d="M1024 651C1024 665.24 1024 679.48 1023.92 693.73C1023.85 705.73 1023.71 717.72 1023.39 729.71C1022.68 755.84 1021.14 782.2 1016.5 808.05C1011.79 834.27 1004.1 858.67 991.97 882.49C980.05 905.9 964.48 927.33 945.9 945.9C927.32 964.47 905.9 980.05 882.49 991.97C858.67 1004.09 834.27 1011.79 808.05 1016.5C782.21 1021.15 755.85 1022.68 729.71 1023.39C717.72 1023.72 705.72 1023.85 693.73 1023.92C679.49 1024.01 665.25 1024 651 1024H373C358.76 1024 344.52 1024 330.27 1023.92C318.27 1023.85 306.28 1023.71 294.29 1023.39C268.16 1022.68 241.8 1021.14 215.95 1016.5C189.73 1011.79 165.33 1004.1 141.51 991.97C118.1 980.05 96.6703 964.48 78.1003 945.9C59.5303 927.32 43.9503 905.9 32.0303 882.49C19.9103 858.67 12.2103 834.27 7.50033 808.05C2.85033 782.21 1.32033 755.85 0.610331 729.71C0.280331 717.72 0.150331 705.72 0.0803306 693.73C-0.00966939 679.49 0.000330575 665.25 0.000330575 651V373C0.000330575 358.76 0.00033062 344.52 0.0803306 330.27C0.150331 318.27 0.290331 306.28 0.610331 294.29C1.32033 268.16 2.86033 241.8 7.50033 215.95C12.2103 189.73 19.9003 165.33 32.0303 141.51C43.9503 118.1 59.5203 96.6704 78.1003 78.1004C96.6803 59.5304 118.1 43.9504 141.51 32.0304C165.33 19.9104 189.73 12.2104 215.95 7.50039C241.79 2.85039 268.15 1.32039 294.29 0.610392C306.28 0.280392 318.28 0.150392 330.27 0.0803917C344.51 -0.00960835 358.75 0.00039161 373 0.00039161H651C665.24 0.00039161 679.48 0.000391655 693.73 0.0803917C705.73 0.150392 717.72 0.290392 729.71 0.610392C755.84 1.32039 782.2 2.86039 808.05 7.50039C834.27 12.2104 858.67 19.9004 882.49 32.0304C905.9 43.9504 927.33 59.5204 945.9 78.1004C964.47 96.6804 980.05 118.1 991.97 141.51C1004.09 165.33 1011.79 189.73 1016.5 215.95C1021.15 241.79 1022.68 268.15 1023.39 294.29C1023.72 306.28 1023.85 318.28 1023.92 330.27C1024.01 344.51 1024 358.75 1024 373V651Z" fill="black"/>
</mask>
<g mask="url(#mask0_65_2794)">
<rect y="6.10352e-05" width="1024" height="1024" fill="#492222"/>
<path d="M239.393 346.233C213.333 388.701 181.957 578.826 170.21 692.964C168.726 707.387 179.615 719.956 194.083 720.906L243.5 724.15C254.832 724.894 264.36 732.926 267.01 743.968L287.114 827.735C289.477 837.581 297.325 845.189 307.312 846.857C387.978 860.334 533.31 868.318 620.93 820.192C992.068 616.341 865.659 254.427 642.258 194.566C418.857 134.706 303.377 241.962 239.393 346.233Z" fill="#E9ECD9"/>
<g filter="url(#filter0_g_65_2794)">
<path d="M719.991 411.97C744.539 411.97 762.39 420.422 774.234 434.21C786.236 448.181 792.898 468.606 792.898 493.876C792.898 542.499 753.481 581.916 704.858 581.916C656.236 581.916 616.819 542.499 616.819 493.876C616.819 470.597 629.516 450.292 649.247 435.491C669.022 420.657 695.154 411.97 719.991 411.97Z" stroke="#492222" stroke-width="17.2826"/>
</g>
<g filter="url(#filter1_g_65_2794)">
<path d="M719.991 411.97C744.539 411.97 762.39 420.422 774.234 434.21C786.236 448.181 792.898 468.606 792.898 493.876C792.898 542.499 753.481 581.916 704.858 581.916C656.236 581.916 616.819 542.499 616.819 493.876C616.819 470.597 629.516 450.292 649.247 435.491C669.022 420.657 695.154 411.97 719.991 411.97Z" stroke="#492222" stroke-width="17.2826"/>
</g>
<g filter="url(#filter2_g_65_2794)">
<path d="M583.295 282.074C621.147 282.074 649.061 294.27 667.574 314.33C686.184 334.495 696.216 363.607 696.216 399.073C696.216 467.817 636.155 524.583 560.738 524.583C485.322 524.583 425.26 467.817 425.26 399.073C425.26 365.723 444.83 336.66 475.056 315.555C505.279 294.451 545.21 282.074 583.295 282.074Z" stroke="#492222" stroke-width="17.2826"/>
</g>
<g filter="url(#filter3_g_65_2794)">
<path d="M727.416 125.17C765.268 125.17 793.181 137.366 811.695 157.426C830.305 177.591 840.336 206.703 840.336 242.169C840.336 310.913 780.275 367.679 704.859 367.679C629.442 367.679 569.38 310.913 569.38 242.169C569.38 208.819 588.951 179.756 619.176 158.651C649.4 137.547 689.331 125.17 727.416 125.17Z" stroke="#E9ECD9" stroke-width="17.2826"/>
</g>
<mask id="mask1_65_2794" style="mask-type:alpha" maskUnits="userSpaceOnUse" x="170" y="177" width="687" height="681">
<path d="M239.393 346.233C213.333 388.701 181.957 578.826 170.21 692.964C168.726 707.387 179.615 719.956 194.083 720.906L243.5 724.15C254.832 724.894 264.36 732.926 267.01 743.968L287.114 827.735C289.477 837.581 297.325 845.189 307.312 846.857C387.978 860.334 533.31 868.318 620.93 820.192C992.068 616.341 865.659 254.427 642.258 194.566C418.857 134.706 303.377 241.962 239.393 346.233Z" fill="#97630C"/>
</mask>
<g mask="url(#mask1_65_2794)">
<g filter="url(#filter4_g_65_2794)">
<path d="M727.416 125.17C765.268 125.17 793.181 137.366 811.695 157.426C830.305 177.591 840.336 206.703 840.336 242.169C840.336 310.913 780.275 367.679 704.859 367.679C629.442 367.679 569.38 310.913 569.38 242.169C569.38 208.819 588.951 179.756 619.176 158.651C649.4 137.547 689.331 125.17 727.416 125.17Z" stroke="#492222" stroke-width="17.2826"/>
</g>
</g>
</g>
</g>
<defs>
<filter id="filter0_g_65_2794" x="601.234" y="396.384" width="207.25" height="201.117" filterUnits="userSpaceOnUse" color-interpolation-filters="sRGB">
<feFlood flood-opacity="0" result="BackgroundImageFix"/>
<feBlend mode="normal" in="SourceGraphic" in2="BackgroundImageFix" result="shape"/>
<feTurbulence type="fractalNoise" baseFrequency="0.039275705814361572 0.039275705814361572" numOctaves="3" seed="1005" />
<feDisplacementMap in="shape" scale="13.887835502624512" xChannelSelector="R" yChannelSelector="G" result="displacedImage" width="100%" height="100%" />
<feMerge result="effect1_texture_65_2794">
<feMergeNode in="displacedImage"/>
</feMerge>
</filter>
<filter id="filter1_g_65_2794" x="601.234" y="396.384" width="207.25" height="201.117" filterUnits="userSpaceOnUse" color-interpolation-filters="sRGB">
<feFlood flood-opacity="0" result="BackgroundImageFix"/>
<feBlend mode="normal" in="SourceGraphic" in2="BackgroundImageFix" result="shape"/>
<feTurbulence type="fractalNoise" baseFrequency="0.039275705814361572 0.039275705814361572" numOctaves="3" seed="1005" />
<feDisplacementMap in="shape" scale="13.887835502624512" xChannelSelector="R" yChannelSelector="G" result="displacedImage" width="100%" height="100%" />
<feMerge result="effect1_texture_65_2794">
<feMergeNode in="displacedImage"/>
</feMerge>
</filter>
<filter id="filter2_g_65_2794" x="409.674" y="266.489" width="302.127" height="273.679" filterUnits="userSpaceOnUse" color-interpolation-filters="sRGB">
<feFlood flood-opacity="0" result="BackgroundImageFix"/>
<feBlend mode="normal" in="SourceGraphic" in2="BackgroundImageFix" result="shape"/>
<feTurbulence type="fractalNoise" baseFrequency="0.039275705814361572 0.039275705814361572" numOctaves="3" seed="1005" />
<feDisplacementMap in="shape" scale="13.887835502624512" xChannelSelector="R" yChannelSelector="G" result="displacedImage" width="100%" height="100%" />
<feMerge result="effect1_texture_65_2794">
<feMergeNode in="displacedImage"/>
</feMerge>
</filter>
<filter id="filter3_g_65_2794" x="553.795" y="109.584" width="302.127" height="273.679" filterUnits="userSpaceOnUse" color-interpolation-filters="sRGB">
<feFlood flood-opacity="0" result="BackgroundImageFix"/>
<feBlend mode="normal" in="SourceGraphic" in2="BackgroundImageFix" result="shape"/>
<feTurbulence type="fractalNoise" baseFrequency="0.039275705814361572 0.039275705814361572" numOctaves="3" seed="1005" />
<feDisplacementMap in="shape" scale="13.887835502624512" xChannelSelector="R" yChannelSelector="G" result="displacedImage" width="100%" height="100%" />
<feMerge result="effect1_texture_65_2794">
<feMergeNode in="displacedImage"/>
</feMerge>
</filter>
<filter id="filter4_g_65_2794" x="553.795" y="109.584" width="302.127" height="273.679" filterUnits="userSpaceOnUse" color-interpolation-filters="sRGB">
<feFlood flood-opacity="0" result="BackgroundImageFix"/>
<feBlend mode="normal" in="SourceGraphic" in2="BackgroundImageFix" result="shape"/>
<feTurbulence type="fractalNoise" baseFrequency="0.039275705814361572 0.039275705814361572" numOctaves="3" seed="1005" />
<feDisplacementMap in="shape" scale="13.887835502624512" xChannelSelector="R" yChannelSelector="G" result="displacedImage" width="100%" height="100%" />
<feMerge result="effect1_texture_65_2794">
<feMergeNode in="displacedImage"/>
</feMerge>
</filter>
<clipPath id="clip0_65_2794">
<rect width="1024" height="1024" fill="white"/>
</clipPath>
</defs>
</svg>
