<svg width="577" height="139" viewBox="0 0 577 139" fill="none" xmlns="http://www.w3.org/2000/svg">
<title>mind</title>
<path d="M12.8038 43.876C8.14662 51.4654 2.53948 85.443 0.440111 105.841C0.174826 108.418 2.12092 110.664 4.7065 110.834L13.5379 111.414C15.5629 111.547 17.2658 112.982 17.7394 114.956L21.3322 129.926C21.7545 131.685 23.157 133.045 24.9418 133.343C39.3578 135.752 65.3303 137.179 80.9889 128.578C147.316 92.1474 124.725 27.469 84.8005 16.7713C44.8761 6.07363 24.2385 25.2415 12.8038 43.876Z" fill="#1717F0"/>
<g filter="url(#filter0_g_3_351)">
<path d="M98.6924 55.624C103.079 55.624 106.269 57.1348 108.386 59.5986C110.531 62.0953 111.722 65.7458 111.722 70.2617C111.722 78.9511 104.678 85.9959 95.9883 85.9961C87.2988 85.9961 80.2539 78.9512 80.2539 70.2617C80.254 66.1016 82.5238 62.4732 86.0498 59.8281C89.5838 57.1771 94.2537 55.624 98.6924 55.624Z" stroke="white" stroke-width="3.08862"/>
</g>
<g filter="url(#filter1_g_3_351)">
<path d="M98.6924 55.624C103.079 55.624 106.269 57.1348 108.386 59.5986C110.531 62.0953 111.722 65.7458 111.722 70.2617C111.722 78.9511 104.678 85.9959 95.9883 85.9961C87.2988 85.9961 80.2539 78.9512 80.2539 70.2617C80.254 66.1016 82.5238 62.4732 86.0498 59.8281C89.5838 57.1771 94.2537 55.624 98.6924 55.624Z" stroke="white" stroke-width="3.08862"/>
</g>
<g filter="url(#filter2_g_3_351)">
<path d="M74.2646 32.4092C81.0292 32.4092 86.0176 34.589 89.3262 38.1738C92.6519 41.7774 94.4453 46.9803 94.4453 53.3184C94.4453 65.6037 83.7112 75.749 70.2334 75.749C56.7556 75.749 46.0215 65.6037 46.0215 53.3184C46.0216 47.3584 49.5194 42.1643 54.9209 38.3926C60.3221 34.6211 67.4585 32.4092 74.2646 32.4092Z" stroke="white" stroke-width="3.08862"/>
</g>
<g filter="url(#filter3_g_3_351)">
<path d="M100.02 4.36816C106.784 4.36816 111.772 6.54794 115.081 10.1328C118.407 13.7364 120.2 18.9393 120.2 25.2773C120.2 37.5627 109.466 47.708 95.9883 47.708C82.5105 47.708 71.7764 37.5627 71.7764 25.2773C71.7765 19.3174 75.2743 14.1233 80.6758 10.3516C86.077 6.58006 93.2134 4.36817 100.02 4.36816Z" stroke="#1717F0" stroke-width="3.08862"/>
</g>
<mask id="mask0_3_351" style="mask-type:alpha" maskUnits="userSpaceOnUse" x="-2" y="12" width="127" height="125">
<path d="M12.8038 43.876C8.14662 51.4654 2.53948 85.443 0.440111 105.841C0.174826 108.418 2.12092 110.664 4.7065 110.834L13.5379 111.414C15.5629 111.547 17.2658 112.982 17.7394 114.956L21.3322 129.926C21.7545 131.685 23.157 133.045 24.9418 133.343C39.3578 135.752 65.3303 137.179 80.9889 128.578C147.316 92.1474 124.725 27.469 84.8005 16.7713C44.8761 6.07363 24.2385 25.2415 12.8038 43.876Z" fill="#97630C" stroke="#CFC7B3" stroke-width="3.08862"/>
</mask>
<g mask="url(#mask0_3_351)">
<g filter="url(#filter4_g_3_351)">
<path d="M100.02 4.36816C106.784 4.36816 111.772 6.54794 115.081 10.1328C118.407 13.7364 120.2 18.9393 120.2 25.2773C120.2 37.5627 109.466 47.708 95.9883 47.708C82.5105 47.708 71.7764 37.5627 71.7764 25.2773C71.7765 19.3174 75.2743 14.1233 80.6758 10.3516C86.077 6.58006 93.2134 4.36817 100.02 4.36816Z" stroke="white" stroke-width="3.08862"/>
</g>
</g>
<path d="M163.773 135V41.88H182.589V48.024C182.589 50.136 182.589 52.632 182.397 54.744C186.621 45.528 194.493 38.808 205.629 38.808C215.805 38.808 224.445 44.952 228.093 56.088C232.893 46.296 241.533 38.808 254.013 38.808C270.525 38.808 281.469 51.288 281.469 73.176V135H262.461V76.248C262.461 62.808 258.621 54.552 248.637 54.552C237.501 54.552 231.933 65.304 231.933 78.552V135H213.117V76.632C213.117 63.192 209.277 54.552 199.293 54.552C188.349 54.552 182.589 65.304 182.589 78.936V135H163.773ZM297.17 135V118.872H318.674V58.008H301.01V41.88H338.642V118.872H357.266V135H297.17ZM316.37 26.52V3.28799H339.218V26.52H316.37ZM372.995 135V41.88H392.963V47.064C392.963 49.56 392.771 51.864 392.579 54.744C397.571 46.104 407.555 38.808 421.763 38.808C443.267 38.808 455.747 53.208 455.747 76.632V135H435.779V79.32C435.779 63.768 429.635 54.552 416.387 54.552C401.987 54.552 392.963 66.072 392.963 79.896V135H372.995ZM512.022 138.072C487.638 138.072 469.398 120.792 469.398 88.536C469.398 57.816 488.406 38.808 512.406 38.808C527.382 38.808 536.982 46.68 541.782 54.744C541.398 51.864 541.398 49.176 541.398 46.488V0.599991H561.366V135H541.398V130.392C541.398 127.32 541.398 124.824 541.782 122.136C537.558 129.816 527.574 138.072 512.022 138.072ZM516.246 122.52C531.606 122.52 542.742 108.888 542.742 88.344C542.742 67.8 531.606 54.552 516.246 54.552C500.886 54.552 489.75 68.376 489.75 88.536C489.75 109.08 500.886 122.52 516.246 122.52Z" fill="#1717F0"/>
<defs>
<filter id="filter0_g_3_351" x="77.469" y="52.8391" width="37.0376" height="35.9429" filterUnits="userSpaceOnUse" color-interpolation-filters="sRGB">
<feFlood flood-opacity="0" result="BackgroundImageFix"/>
<feBlend mode="normal" in="SourceGraphic" in2="BackgroundImageFix" result="shape"/>
<feTurbulence type="fractalNoise" baseFrequency="0.21977028250694275 0.21977028250694275" numOctaves="3" seed="1005" />
<feDisplacementMap in="shape" scale="2.4819304943084717" xChannelSelector="R" yChannelSelector="G" result="displacedImage" width="100%" height="100%" />
<feMerge result="effect1_texture_3_351">
<feMergeNode in="displacedImage"/>
</feMerge>
</filter>
<filter id="filter1_g_3_351" x="77.469" y="52.8391" width="37.0376" height="35.9429" filterUnits="userSpaceOnUse" color-interpolation-filters="sRGB">
<feFlood flood-opacity="0" result="BackgroundImageFix"/>
<feBlend mode="normal" in="SourceGraphic" in2="BackgroundImageFix" result="shape"/>
<feTurbulence type="fractalNoise" baseFrequency="0.21977028250694275 0.21977028250694275" numOctaves="3" seed="1005" />
<feDisplacementMap in="shape" scale="2.4819304943084717" xChannelSelector="R" yChannelSelector="G" result="displacedImage" width="100%" height="100%" />
<feMerge result="effect1_texture_3_351">
<feMergeNode in="displacedImage"/>
</feMerge>
</filter>
<filter id="filter2_g_3_351" x="43.2366" y="29.6243" width="53.9936" height="48.9097" filterUnits="userSpaceOnUse" color-interpolation-filters="sRGB">
<feFlood flood-opacity="0" result="BackgroundImageFix"/>
<feBlend mode="normal" in="SourceGraphic" in2="BackgroundImageFix" result="shape"/>
<feTurbulence type="fractalNoise" baseFrequency="0.21977028250694275 0.21977028250694275" numOctaves="3" seed="1005" />
<feDisplacementMap in="shape" scale="2.4819304943084717" xChannelSelector="R" yChannelSelector="G" result="displacedImage" width="100%" height="100%" />
<feMerge result="effect1_texture_3_351">
<feMergeNode in="displacedImage"/>
</feMerge>
</filter>
<filter id="filter3_g_3_351" x="68.9915" y="1.58325" width="53.9936" height="48.9097" filterUnits="userSpaceOnUse" color-interpolation-filters="sRGB">
<feFlood flood-opacity="0" result="BackgroundImageFix"/>
<feBlend mode="normal" in="SourceGraphic" in2="BackgroundImageFix" result="shape"/>
<feTurbulence type="fractalNoise" baseFrequency="0.21977028250694275 0.21977028250694275" numOctaves="3" seed="1005" />
<feDisplacementMap in="shape" scale="2.4819304943084717" xChannelSelector="R" yChannelSelector="G" result="displacedImage" width="100%" height="100%" />
<feMerge result="effect1_texture_3_351">
<feMergeNode in="displacedImage"/>
</feMerge>
</filter>
<filter id="filter4_g_3_351" x="68.9915" y="1.58325" width="53.9936" height="48.9097" filterUnits="userSpaceOnUse" color-interpolation-filters="sRGB">
<feFlood flood-opacity="0" result="BackgroundImageFix"/>
<feBlend mode="normal" in="SourceGraphic" in2="BackgroundImageFix" result="shape"/>
<feTurbulence type="fractalNoise" baseFrequency="0.21977028250694275 0.21977028250694275" numOctaves="3" seed="1005" />
<feDisplacementMap in="shape" scale="2.4819304943084717" xChannelSelector="R" yChannelSelector="G" result="displacedImage" width="100%" height="100%" />
<feMerge result="effect1_texture_3_351">
<feMergeNode in="displacedImage"/>
</feMerge>
</filter>
</defs>
</svg>
